<svg width="24" height="20" viewBox="0 0 24 20" fill="none" xmlns="http://www.w3.org/2000/svg">
<g clip-path="url(#clip0_623:4)">
<path d="M24 2.3859C23.1169 2.7775 22.1679 3.04215 21.1719 3.16121C22.1887 2.55184 22.9693 1.58687 23.3369 0.43712C22.3704 1.01067 21.3129 1.41477 20.2103 1.63196C19.312 0.675058 18.0324 0.0770264 16.6162 0.0770264C13.8968 0.0770264 11.6921 2.28165 11.6921 5.00078C11.6921 5.38675 11.7357 5.7625 11.8196 6.12296C7.72744 5.91756 4.09931 3.95734 1.67072 0.978339C1.24697 1.70556 1.00416 2.55146 1.00416 3.45371C1.00416 5.16203 1.8735 6.66906 3.19463 7.55209C2.4127 7.5276 1.64798 7.31641 0.964313 6.93615C0.964031 6.95678 0.964031 6.9774 0.964031 6.99812C0.964031 9.38378 2.66128 11.3739 4.91372 11.8262C4.18864 12.0234 3.42809 12.0523 2.69016 11.9106C3.31669 13.8668 5.13516 15.2903 7.28972 15.3302C5.60456 16.6507 3.48141 17.4379 1.17459 17.4379C0.777094 17.4379 0.385219 17.4146 0 17.3691C2.17903 18.7662 4.76719 19.5813 7.54781 19.5813C16.6047 19.5813 21.5573 12.0784 21.5573 5.57181C21.5573 5.35825 21.5526 5.1459 21.543 4.93478C22.507 4.23792 23.339 3.37479 24 2.3859" fill="#55ACEE"/>
</g>
<defs>
<clipPath id="clip0_623:4">
<rect width="24" height="19.5938" fill="white"/>
</clipPath>
</defs>
</svg>
