<svg width="24" height="17" viewBox="0 0 24 17" fill="none" xmlns="http://www.w3.org/2000/svg">
<g clip-path="url(#clip0_623:6)">
<path d="M23.4697 2.63203C23.3321 2.1233 23.0635 1.65951 22.6909 1.28684C22.3182 0.914168 21.8544 0.64562 21.3457 0.507938C19.4833 0 11.9876 0 11.9876 0C11.9876 0 4.49152 0.015375 2.62909 0.523313C2.12035 0.661003 1.65656 0.929565 1.28391 1.30225C0.911253 1.67494 0.642732 2.13875 0.505086 2.6475C-0.0582574 5.95669 -0.276789 10.9991 0.520555 14.1759C0.658215 14.6847 0.926742 15.1485 1.2994 15.5211C1.67205 15.8938 2.13583 16.1624 2.64456 16.3C4.50699 16.808 12.0029 16.808 12.0029 16.808C12.0029 16.808 19.4986 16.808 21.361 16.3C21.8697 16.1624 22.3335 15.8938 22.7062 15.5212C23.0789 15.1485 23.3474 14.6847 23.4851 14.1759C24.0793 10.8621 24.2624 5.82281 23.4697 2.63213V2.63203Z" fill="#FF0000"/>
<path d="M9.60205 12.0056L15.8204 8.40394L9.60214 4.80225L9.60205 12.0056Z" fill="white"/>
</g>
<defs>
<clipPath id="clip0_623:6">
<rect width="24" height="16.875" fill="white"/>
</clipPath>
</defs>
</svg>
